<svg xmlns="http://www.w3.org/2000/svg" xmlns:xlink="http://www.w3.org/1999/xlink" width="1920" zoomAndPan="magnify" viewBox="0 0 1440 599.999999" height="800" preserveAspectRatio="xMidYMid meet" version="1.0"><defs><clipPath id="1ecd71510e"><path d="M 191.3125 485.378906 L 230.3125 485.378906 L 230.3125 524.378906 L 191.3125 524.378906 Z M 191.3125 485.378906 " clip-rule="nonzero"/></clipPath><clipPath id="eb9bcc332e"><path d="M 1360.683594 524.257812 L 1399.683594 524.257812 L 1399.683594 563.257812 L 1360.683594 563.257812 Z M 1360.683594 524.257812 " clip-rule="nonzero"/></clipPath><clipPath id="0b0261dde1"><path d="M 495.277344 66.308594 L 521.175781 66.308594 L 521.175781 92.207031 L 495.277344 92.207031 Z M 495.277344 66.308594 " clip-rule="nonzero"/></clipPath><clipPath id="d7cb1bc0c1"><path d="M 504 70 L 516 70 L 516 92.207031 L 504 92.207031 Z M 504 70 " clip-rule="nonzero"/></clipPath><clipPath id="db47ef7869"><path d="M 503 69 L 516 69 L 516 92.207031 L 503 92.207031 Z M 503 69 " clip-rule="nonzero"/></clipPath><clipPath id="963e10fbb6"><path d="M 488.777344 60 L 527.621094 60 L 527.621094 98.84375 L 488.777344 98.84375 Z M 488.777344 60 " clip-rule="nonzero"/></clipPath><clipPath id="1da51dabc7"><path d="M 508.214844 60 C 497.476562 60 488.777344 68.703125 488.777344 79.4375 C 488.777344 90.171875 497.476562 98.875 508.214844 98.875 C 518.949219 98.875 527.652344 90.171875 527.652344 79.4375 C 527.652344 68.703125 518.949219 60 508.214844 60 Z M 508.214844 60 " clip-rule="nonzero"/></clipPath><clipPath id="366ff3dc18"><path d="M 801.523438 435.226562 L 824.261719 435.226562 L 824.261719 457.96875 L 801.523438 457.96875 Z M 801.523438 435.226562 " clip-rule="nonzero"/></clipPath><clipPath id="f956061fc7"><path d="M 793.476562 427.183594 L 832.324219 427.183594 L 832.324219 466.027344 L 793.476562 466.027344 Z M 793.476562 427.183594 " clip-rule="nonzero"/></clipPath><clipPath id="62a1cc5b78"><path d="M 812.914062 427.183594 C 802.179688 427.183594 793.476562 435.882812 793.476562 446.621094 C 793.476562 457.355469 802.179688 466.058594 812.914062 466.058594 C 823.648438 466.058594 832.351562 457.355469 832.351562 446.621094 C 832.351562 435.882812 823.648438 427.183594 812.914062 427.183594 Z M 812.914062 427.183594 " clip-rule="nonzero"/></clipPath><clipPath id="3116b73745"><path d="M 1190.433594 98.878906 L 1229.433594 98.878906 L 1229.433594 137.878906 L 1190.433594 137.878906 Z M 1190.433594 98.878906 " clip-rule="nonzero"/></clipPath><clipPath id="cb59f290bc"><path d="M 60 170.191406 L 98.84375 170.191406 L 98.84375 209.039062 L 60 209.039062 Z M 60 170.191406 " clip-rule="nonzero"/></clipPath><clipPath id="561b9204d4"><path d="M 79.4375 170.191406 C 68.703125 170.191406 60 178.894531 60 189.628906 C 60 200.363281 68.703125 209.066406 79.4375 209.066406 C 90.171875 209.066406 98.875 200.363281 98.875 189.628906 C 98.875 178.894531 90.171875 170.191406 79.4375 170.191406 Z M 79.4375 170.191406 " clip-rule="nonzero"/></clipPath><clipPath id="c05ce36005"><path d="M 68.046875 178.238281 L 90.785156 178.238281 L 90.785156 200.976562 L 68.046875 200.976562 Z M 68.046875 178.238281 " clip-rule="nonzero"/></clipPath></defs><path fill="#000000" d="M 219.386719 500.589844 C 219.386719 500.589844 219.683594 506.816406 214.933594 510.660156 C 207.855469 516.410156 200.214844 511.746094 200.214844 511.746094 C 200.214844 511.746094 202.070312 511.777344 203.714844 511.332031 C 205.355469 510.890625 206.523438 509.839844 206.523438 509.839844 C 206.523438 509.839844 204.734375 509.460938 203.8125 508.789062 C 202.875 508.113281 202.53125 506.816406 202.53125 506.816406 C 202.53125 506.816406 203.140625 506.867188 203.535156 506.867188 C 203.929688 506.847656 204.402344 506.667969 204.402344 506.667969 C 204.402344 506.667969 203.121094 506.519531 201.921875 505.171875 C 200.988281 504.121094 201.054688 502.363281 201.054688 502.363281 C 201.054688 502.363281 201.613281 502.691406 201.921875 502.773438 C 202.21875 502.855469 202.792969 502.855469 202.792969 502.855469 C 202.792969 502.855469 201.675781 502.183594 201.167969 500.476562 C 200.675781 498.75 201.628906 497.007812 201.628906 497.007812 C 201.628906 497.007812 203.269531 499.011719 205.75 500.3125 C 208.230469 501.609375 210.566406 501.558594 210.566406 501.558594 C 210.566406 501.558594 210.21875 500.523438 210.8125 499.011719 C 211.402344 497.484375 212.75 496.402344 214.785156 496.238281 C 216.824219 496.074219 218.121094 497.617188 218.121094 497.617188 C 218.121094 497.617188 218.746094 497.5 219.46875 497.238281 C 220.191406 496.976562 220.898438 496.648438 220.898438 496.648438 C 220.898438 496.648438 220.652344 497.417969 220.160156 498.027344 C 219.664062 498.636719 219.105469 498.996094 219.105469 498.996094 C 219.105469 498.996094 219.746094 498.945312 220.390625 498.765625 C 221.03125 498.585938 221.390625 498.40625 221.390625 498.40625 C 220.683594 499.652344 219.386719 500.589844 219.386719 500.589844 Z M 219.386719 500.589844 " fill-opacity="1" fill-rule="nonzero"/><g clip-path="url(#1ecd71510e)"><path fill="#000000" d="M 210.8125 524.378906 C 200.066406 524.378906 191.3125 515.636719 191.3125 504.878906 C 191.3125 494.117188 200.066406 485.378906 210.8125 485.378906 C 221.554688 485.378906 230.3125 494.132812 230.3125 504.878906 C 230.3125 515.621094 221.570312 524.378906 210.8125 524.378906 Z M 210.8125 486.445312 C 200.640625 486.445312 192.378906 494.707031 192.378906 504.878906 C 192.378906 515.046875 200.640625 523.308594 210.8125 523.308594 C 220.980469 523.308594 229.242188 515.046875 229.242188 504.878906 C 229.242188 494.707031 220.980469 486.445312 210.8125 486.445312 Z M 210.8125 486.445312 " fill-opacity="1" fill-rule="nonzero"/></g><path fill="#000000" d="M 1392.703125 543.757812 C 1392.703125 550.671875 1387.101562 556.257812 1380.199219 556.257812 C 1378.96875 556.257812 1377.785156 556.078125 1376.652344 555.75 C 1376.929688 555.160156 1377.785156 553.402344 1377.964844 552.695312 C 1378.164062 551.972656 1378.738281 549.640625 1378.738281 549.640625 C 1379.558594 550.542969 1380.546875 551.132812 1381.761719 551.101562 C 1386.34375 550.96875 1388.199219 547.222656 1388.480469 543.59375 C 1388.726562 540.539062 1386.855469 535.542969 1380.398438 535.542969 C 1374.46875 535.542969 1372.316406 539.683594 1371.886719 542.132812 C 1371.429688 544.824219 1372.691406 547.929688 1374.796875 548.011719 L 1375.222656 546.335938 C 1374.335938 545.285156 1373.859375 544.003906 1374.253906 542.113281 C 1374.582031 540.519531 1376.503906 537.449219 1380.464844 537.5625 C 1385.0625 537.695312 1385.753906 541.539062 1385.40625 543.808594 C 1384.503906 549.753906 1381.121094 548.980469 1381.003906 548.949219 C 1379.707031 548.703125 1379.429688 547.75 1379.476562 546.8125 C 1379.527344 545.84375 1380.332031 544.808594 1380.59375 543.082031 C 1380.757812 542 1380.609375 540.519531 1379.164062 540.375 C 1377.621094 540.210938 1376.882812 541.820312 1376.765625 542.410156 C 1376.488281 543.789062 1376.636719 544.382812 1377.011719 545.515625 C 1377.011719 545.515625 1375.832031 550.574219 1375.371094 552.316406 C 1375.222656 552.90625 1375.171875 554.402344 1375.15625 555.175781 C 1370.753906 553.238281 1367.683594 548.832031 1367.683594 543.726562 C 1367.683594 536.808594 1373.285156 531.222656 1380.183594 531.222656 C 1387.082031 531.253906 1392.703125 536.859375 1392.703125 543.757812 Z M 1392.703125 543.757812 " fill-opacity="1" fill-rule="nonzero"/><g clip-path="url(#eb9bcc332e)"><path fill="#000000" d="M 1380.183594 563.257812 C 1369.441406 563.257812 1360.683594 554.519531 1360.683594 543.757812 C 1360.683594 532.996094 1369.441406 524.257812 1380.183594 524.257812 C 1390.945312 524.257812 1399.683594 533.011719 1399.683594 543.757812 C 1399.683594 554.5 1390.945312 563.257812 1380.183594 563.257812 Z M 1380.183594 525.324219 C 1370.015625 525.324219 1361.75 533.589844 1361.75 543.757812 C 1361.75 553.925781 1370.015625 562.191406 1380.183594 562.191406 C 1390.351562 562.191406 1398.617188 553.925781 1398.617188 543.757812 C 1398.617188 533.589844 1390.351562 525.324219 1380.183594 525.324219 Z M 1380.183594 525.324219 " fill-opacity="1" fill-rule="nonzero"/></g><g clip-path="url(#0b0261dde1)"><path stroke-linecap="butt" transform="matrix(0.058075, 0, 0, 0.058075, 494.246692, 65.617671)" fill-opacity="1" fill="#000000" fill-rule="nonzero" stroke-linejoin="miter" d="M 462.68578 234.601928 C 462.68578 249.197806 461.273275 263.659161 458.448267 277.918729 C 455.555996 292.245559 451.385745 306.168816 445.802989 319.621239 C 440.220234 333.140923 433.359498 345.920725 425.220783 358.027905 C 417.149329 370.202347 407.93442 381.43512 397.643317 391.726224 C 387.284951 402.017327 376.052178 411.232236 363.944998 419.370952 C 351.837818 427.442406 338.990754 434.303141 325.538331 439.885896 C 312.085909 445.468652 298.162652 449.706165 283.835821 452.531174 C 269.508991 455.356182 255.114899 456.768687 240.519021 456.768687 C 225.923142 456.768687 211.461788 455.356182 197.134958 452.531174 C 182.808128 449.706165 168.952133 445.468652 155.49971 439.885896 C 141.980025 434.303141 129.200224 427.442406 117.025781 419.370952 C 104.918601 411.232236 93.685828 402.017327 83.394725 391.726224 C 73.03636 381.43512 63.82145 370.202347 55.749997 358.027905 C 47.611281 345.920725 40.817808 333.140923 35.235052 319.621239 C 29.652297 306.168816 25.414784 292.245559 22.589775 277.918729 C 19.697504 263.659161 18.285 249.197806 18.285 234.601928 C 18.285 220.006049 19.697504 205.544695 22.589775 191.217865 C 25.414784 176.958297 29.652297 163.03504 35.235052 149.582617 C 40.817808 136.062932 47.611281 123.283131 55.749997 111.175951 C 63.82145 99.001508 73.03636 87.768735 83.394725 77.477632 C 93.685828 67.186529 104.918601 57.971619 117.025781 49.832904 C 129.200224 41.76145 141.980025 34.900715 155.49971 29.317959 C 168.952133 23.735204 182.808128 19.497691 197.134958 16.672682 C 211.461788 13.847673 225.923142 12.367907 240.519021 12.367907 C 255.114899 12.367907 269.508991 13.847673 283.835821 16.672682 C 298.162652 19.497691 312.085909 23.735204 325.538331 29.317959 C 338.990754 34.900715 351.837818 41.76145 363.944998 49.832904 C 376.052178 57.971619 387.284951 67.186529 397.643317 77.477632 C 407.93442 87.768735 417.149329 99.001508 425.220783 111.175951 C 433.359498 123.283131 440.220234 136.062932 445.802989 149.582617 C 451.385745 163.03504 455.555996 176.958297 458.448267 191.217865 C 461.273275 205.544695 462.68578 220.006049 462.68578 234.601928 Z M 462.68578 234.601928 " stroke="#4267b2" stroke-width="1" stroke-opacity="1" stroke-miterlimit="10"/></g><g clip-path="url(#d7cb1bc0c1)"><path fill="#ffffff" d="M 511.246094 70.148438 C 510.21875 70.332031 509.863281 70.507812 509.269531 70.84375 C 508.636719 71.203125 508.195312 71.582031 507.894531 71.890625 C 506.90625 72.910156 506.6875 73.863281 506.5 74.601562 C 506.222656 75.6875 506.25 76.710938 506.25 76.710938 L 506.25 77.503906 L 504.175781 77.503906 L 504.175781 81.113281 L 506.25 81.113281 L 506.25 92 C 506.890625 92.101562 507.546875 92.152344 508.214844 92.152344 C 509.199219 92.152344 510.164062 92.042969 511.089844 91.832031 L 511.089844 81.113281 L 514.242188 81.113281 L 514.242188 77.503906 L 511.089844 77.503906 L 511.089844 76.738281 C 511.089844 76.738281 511.089844 76.601562 511.089844 76.582031 C 511.089844 76.566406 511.089844 76.542969 511.089844 76.523438 C 511.089844 76.367188 511.09375 76.136719 511.128906 75.933594 C 511.214844 75.402344 511.394531 74.992188 511.699219 74.625 C 512.046875 74.207031 512.453125 74.027344 512.90625 73.957031 C 514.027344 73.78125 514.960938 74.171875 514.960938 74.171875 L 515.136719 70.378906 C 515.136719 70.378906 514.433594 70.152344 513.273438 70.070312 C 512.453125 70.015625 511.726562 70.058594 511.246094 70.148438 Z M 511.246094 70.148438 " fill-opacity="1" fill-rule="nonzero"/></g><g clip-path="url(#db47ef7869)"><path stroke-linecap="butt" transform="matrix(0.058075, 0, 0, 0.058075, 494.246692, 65.617671)" fill="none" stroke-linejoin="miter" d="M 292.71442 78.015729 C 275.024485 81.177048 268.903632 84.203843 258.679791 89.988385 C 247.783329 96.176499 240.18271 102.700924 235.003528 108.014631 C 217.986213 125.570043 214.219535 141.981998 210.990953 154.694538 C 206.215343 173.393405 206.686178 191.016079 206.686178 191.016079 L 206.686178 204.670288 L 170.969996 204.670288 L 170.969996 266.82048 L 206.686178 266.82048 L 206.686178 454.279989 C 217.717164 456.028804 229.017199 456.903211 240.519021 456.903211 C 257.469073 456.903211 274.082815 455.019872 290.023936 451.387718 L 290.023936 266.82048 L 344.304461 266.82048 L 344.304461 204.670288 L 290.023936 204.670288 L 290.023936 191.486913 C 290.023936 191.486913 290.023936 189.13274 290.023936 188.796429 C 290.023936 188.52738 290.023936 188.123808 290.023936 187.787497 C 290.023936 185.097013 290.091198 181.128548 290.696557 177.630918 C 292.176323 168.483271 295.270381 161.420749 300.516825 155.09811 C 306.503154 147.901064 313.498413 144.807007 321.300818 143.596289 C 340.605045 140.569494 356.68069 147.295705 356.68069 147.295705 L 359.707485 81.984194 C 359.707485 81.984194 347.600305 78.082991 327.623457 76.670487 C 313.498413 75.728817 300.98766 76.4687 292.71442 78.015729 Z M 292.71442 78.015729 " stroke="#ffffff" stroke-width="1" stroke-opacity="1" stroke-miterlimit="10"/></g><g clip-path="url(#963e10fbb6)"><g clip-path="url(#1da51dabc7)"><path stroke-linecap="butt" transform="matrix(0.315818, 0, 0, 0.315818, 488.775916, 60.000017)" fill="none" stroke-linejoin="miter" d="M 61.550976 -0.0000552216 C 27.549528 -0.0000552216 0.00452122 27.55732 0.00452122 61.5464 C 0.00452122 95.535479 27.549528 123.092854 61.550976 123.092854 C 95.540055 123.092854 123.097431 95.535479 123.097431 61.5464 C 123.097431 27.55732 95.540055 -0.0000552216 61.550976 -0.0000552216 Z M 61.550976 -0.0000552216 " stroke="#000000" stroke-width="18.998262" stroke-opacity="1" stroke-miterlimit="4"/></g></g><g clip-path="url(#366ff3dc18)"><path fill="#000000" d="M 806.648438 435.226562 L 819.167969 435.226562 C 820.582031 435.226562 821.863281 435.800781 822.796875 436.738281 C 823.71875 437.65625 824.304688 438.953125 824.304688 440.355469 L 824.304688 452.875 C 824.304688 454.289062 823.71875 455.570312 822.796875 456.503906 C 821.863281 457.425781 820.582031 458.011719 819.167969 458.011719 L 806.648438 458.011719 C 805.246094 458.011719 803.953125 457.425781 803.03125 456.503906 C 802.097656 455.570312 801.523438 454.289062 801.523438 452.875 L 801.523438 440.355469 C 801.523438 438.953125 802.097656 437.65625 803.03125 436.738281 C 803.953125 435.800781 805.246094 435.226562 806.648438 435.226562 Z M 819.167969 437.257812 L 806.648438 437.257812 C 805.792969 437.257812 805.019531 437.605469 804.460938 438.164062 C 803.898438 438.726562 803.550781 439.5 803.550781 440.355469 L 803.550781 452.875 C 803.550781 453.726562 803.898438 454.5 804.460938 455.0625 C 805.019531 455.636719 805.792969 455.984375 806.648438 455.984375 L 819.167969 455.984375 C 820.023438 455.984375 820.796875 455.636719 821.355469 455.0625 C 821.929688 454.5 822.277344 453.726562 822.277344 452.875 L 822.277344 440.355469 C 822.277344 439.5 821.929688 438.726562 821.355469 438.164062 C 820.796875 437.605469 820.023438 437.257812 819.167969 437.257812 Z M 819.167969 437.257812 " fill-opacity="1" fill-rule="nonzero"/></g><path fill="#000000" d="M 819.300781 439.207031 C 819.582031 439.207031 819.847656 439.3125 820.023438 439.5 C 820.207031 439.6875 820.328125 439.941406 820.328125 440.21875 C 820.328125 440.5 820.207031 440.765625 820.023438 440.941406 C 819.847656 441.128906 819.582031 441.246094 819.300781 441.246094 C 819.019531 441.246094 818.765625 441.128906 818.582031 440.941406 C 818.394531 440.765625 818.285156 440.5 818.285156 440.21875 C 818.285156 439.941406 818.394531 439.6875 818.582031 439.5 C 818.765625 439.3125 819.019531 439.207031 819.300781 439.207031 Z M 819.300781 439.207031 " fill-opacity="1" fill-rule="nonzero"/><path fill="#000000" d="M 812.90625 441.085938 C 814.441406 441.085938 815.816406 441.714844 816.820312 442.703125 C 817.820312 443.703125 818.445312 445.09375 818.445312 446.613281 C 818.445312 448.148438 817.820312 449.523438 816.820312 450.523438 C 815.816406 451.523438 814.441406 452.152344 812.90625 452.152344 C 811.386719 452.152344 810 451.523438 808.996094 450.523438 C 808.007812 449.523438 807.382812 448.148438 807.382812 446.613281 C 807.382812 445.09375 808.007812 443.703125 808.996094 442.703125 C 810 441.714844 811.386719 441.085938 812.90625 441.085938 Z M 815.378906 444.15625 C 814.75 443.53125 813.867188 443.128906 812.90625 443.128906 C 811.945312 443.128906 811.078125 443.53125 810.453125 444.15625 C 809.824219 444.785156 809.425781 445.652344 809.425781 446.613281 C 809.425781 447.574219 809.824219 448.457031 810.453125 449.082031 C 811.078125 449.710938 811.945312 450.097656 812.90625 450.097656 C 813.867188 450.097656 814.75 449.710938 815.378906 449.082031 C 816.003906 448.457031 816.390625 447.574219 816.390625 446.613281 C 816.390625 445.652344 816.003906 444.785156 815.378906 444.15625 Z M 815.378906 444.15625 " fill-opacity="1" fill-rule="nonzero"/><g clip-path="url(#f956061fc7)"><g clip-path="url(#62a1cc5b78)"><path stroke-linecap="butt" transform="matrix(0.315818, 0, 0, 0.315818, 793.476639, 427.181954)" fill="none" stroke-linejoin="miter" d="M 61.546213 0.00519278 C 27.557134 0.00519278 -0.0002418 27.5502 -0.0002418 61.551648 C -0.0002418 95.540727 27.557134 123.098102 61.546213 123.098102 C 95.535292 123.098102 123.092668 95.540727 123.092668 61.551648 C 123.092668 27.5502 95.535292 0.00519278 61.546213 0.00519278 Z M 61.546213 0.00519278 " stroke="#000000" stroke-width="18.998262" stroke-opacity="1" stroke-miterlimit="4"/></g></g><path fill="#000000" d="M 1216.78125 128.925781 C 1216.550781 129.417969 1214.023438 130.652344 1211.132812 130.222656 C 1208.15625 129.78125 1205.449219 127.496094 1205.449219 123.667969 C 1205.449219 119.859375 1205.449219 116.160156 1205.449219 116.160156 L 1203.082031 116.160156 L 1203.082031 113.023438 C 1203.082031 113.023438 1205.085938 112.433594 1206.335938 110.625 C 1207.417969 109.046875 1207.648438 107.355469 1207.730469 106.714844 C 1207.746094 106.550781 1207.878906 106.4375 1208.042969 106.4375 L 1211.445312 106.4375 L 1211.445312 112.515625 L 1216.222656 112.515625 L 1216.222656 116.179688 L 1211.445312 116.179688 C 1211.445312 116.179688 1211.445312 120.792969 1211.445312 123.0625 C 1211.445312 125.460938 1212.132812 126.480469 1215.617188 125.558594 C 1215.617188 125.558594 1216.519531 128.089844 1216.78125 128.925781 Z M 1216.78125 128.925781 " fill-opacity="1" fill-rule="nonzero"/><g clip-path="url(#3116b73745)"><path fill="#000000" d="M 1209.933594 137.878906 C 1199.1875 137.878906 1190.433594 129.140625 1190.433594 118.378906 C 1190.433594 107.636719 1199.1875 98.878906 1209.933594 98.878906 C 1220.675781 98.878906 1229.433594 107.636719 1229.433594 118.378906 C 1229.433594 129.140625 1220.691406 137.878906 1209.933594 137.878906 Z M 1209.933594 99.949219 C 1199.761719 99.949219 1191.5 108.210938 1191.5 118.378906 C 1191.5 128.546875 1199.761719 136.8125 1209.933594 136.8125 C 1220.101562 136.8125 1228.363281 128.546875 1228.363281 118.378906 C 1228.363281 108.210938 1220.101562 99.949219 1209.933594 99.949219 Z M 1209.933594 99.949219 " fill-opacity="1" fill-rule="nonzero"/></g><g clip-path="url(#cb59f290bc)"><g clip-path="url(#561b9204d4)"><path stroke-linecap="butt" transform="matrix(0.315818, 0, 0, 0.315818, 59.999998, 170.192254)" fill="none" stroke-linejoin="miter" d="M 61.546461 -0.00268537 C 27.557382 -0.00268537 0.00000582613 27.55469 0.00000582613 61.543769 C 0.00000582613 95.532849 27.557382 123.090224 61.546461 123.090224 C 95.53554 123.090224 123.092916 95.532849 123.092916 61.543769 C 123.092916 27.55469 95.53554 -0.00268537 61.546461 -0.00268537 Z M 61.546461 -0.00268537 " stroke="#000000" stroke-width="18.998262" stroke-opacity="1" stroke-miterlimit="4"/></g></g><path fill="#000000" d="M 73.347656 186.484375 L 75.03125 186.484375 C 75.117188 186.484375 75.195312 186.515625 75.257812 186.578125 C 75.320312 186.644531 75.351562 186.71875 75.351562 186.808594 L 75.351562 196.058594 C 75.351562 196.148438 75.320312 196.222656 75.257812 196.285156 C 75.195312 196.351562 75.117188 196.382812 75.03125 196.382812 L 73.347656 196.382812 C 73.257812 196.382812 73.183594 196.351562 73.121094 196.285156 C 73.054688 196.222656 73.023438 196.148438 73.023438 196.058594 L 73.023438 186.808594 C 73.023438 186.71875 73.054688 186.644531 73.121094 186.578125 C 73.183594 186.515625 73.257812 186.484375 73.347656 186.484375 Z M 73.347656 186.484375 " fill-opacity="1" fill-rule="nonzero"/><path fill="#000000" d="M 75.542969 184.203125 C 75.539062 183.410156 74.972656 182.835938 74.1875 182.835938 C 73.40625 182.835938 72.816406 183.425781 72.816406 184.207031 C 72.816406 184.574219 72.949219 184.914062 73.1875 185.164062 C 73.4375 185.421875 73.777344 185.5625 74.148438 185.5625 C 74.5625 185.5625 74.929688 185.417969 75.1875 185.152344 C 75.425781 184.90625 75.550781 184.570312 75.542969 184.207031 C 75.542969 184.207031 75.542969 184.207031 75.542969 184.203125 Z M 75.542969 184.203125 " fill-opacity="1" fill-rule="nonzero"/><path fill="#000000" d="M 84.753906 187.136719 C 83.917969 186.386719 82.9375 186.273438 82.425781 186.273438 C 81.664062 186.273438 80.9375 186.480469 80.324219 186.863281 C 80.054688 187.035156 79.8125 187.234375 79.597656 187.464844 L 79.554688 186.789062 C 79.550781 186.703125 79.515625 186.628906 79.453125 186.570312 C 79.390625 186.515625 79.320312 186.484375 79.234375 186.484375 L 77.742188 186.484375 C 77.648438 186.484375 77.570312 186.519531 77.507812 186.589844 C 77.441406 186.65625 77.414062 186.738281 77.421875 186.832031 C 77.476562 187.539062 77.496094 188.28125 77.496094 189.3125 L 77.496094 196.058594 C 77.496094 196.148438 77.527344 196.222656 77.589844 196.285156 C 77.65625 196.351562 77.730469 196.382812 77.820312 196.382812 L 79.5 196.382812 C 79.589844 196.382812 79.667969 196.351562 79.730469 196.285156 C 79.792969 196.222656 79.824219 196.148438 79.824219 196.058594 L 79.824219 190.496094 C 79.824219 190.234375 79.859375 189.988281 79.917969 189.824219 C 79.921875 189.816406 79.921875 189.8125 79.925781 189.808594 C 80.152344 189.066406 80.84375 188.316406 81.871094 188.316406 C 82.507812 188.316406 82.964844 188.53125 83.269531 188.980469 C 83.542969 189.386719 83.691406 189.988281 83.691406 190.726562 L 83.691406 196.058594 C 83.691406 196.148438 83.722656 196.222656 83.785156 196.285156 C 83.847656 196.351562 83.921875 196.382812 84.011719 196.382812 L 85.695312 196.382812 C 85.78125 196.382812 85.859375 196.351562 85.921875 196.285156 C 85.984375 196.222656 86.015625 196.148438 86.015625 196.058594 L 86.015625 190.535156 C 86.015625 189.75 85.898438 189.050781 85.664062 188.460938 C 85.453125 187.933594 85.148438 187.488281 84.753906 187.136719 Z M 84.753906 187.136719 " fill-opacity="1" fill-rule="nonzero"/><g clip-path="url(#c05ce36005)"><path fill="#000000" d="M 87.824219 178.238281 L 71.007812 178.238281 C 69.375 178.238281 68.046875 179.566406 68.046875 181.199219 L 68.046875 198.015625 C 68.046875 199.648438 69.375 200.976562 71.007812 200.976562 L 87.824219 200.976562 C 89.457031 200.976562 90.785156 199.648438 90.785156 198.015625 L 90.785156 181.199219 C 90.785156 179.566406 89.457031 178.238281 87.824219 178.238281 Z M 88.707031 181.34375 L 88.707031 197.875 C 88.707031 198.011719 88.679688 198.140625 88.628906 198.265625 C 88.578125 198.390625 88.503906 198.503906 88.40625 198.597656 C 88.308594 198.695312 88.199219 198.769531 88.074219 198.820312 C 87.949219 198.871094 87.816406 198.898438 87.683594 198.898438 L 71.148438 198.898438 C 71.015625 198.898438 70.882812 198.871094 70.757812 198.820312 C 70.632812 198.769531 70.523438 198.695312 70.425781 198.597656 C 70.328125 198.503906 70.253906 198.390625 70.203125 198.265625 C 70.152344 198.140625 70.125 198.011719 70.125 197.875 L 70.125 181.34375 C 70.125 181.207031 70.152344 181.074219 70.203125 180.949219 C 70.253906 180.824219 70.328125 180.714844 70.425781 180.617188 C 70.523438 180.523438 70.632812 180.449219 70.757812 180.394531 C 70.882812 180.34375 71.015625 180.316406 71.148438 180.316406 L 87.683594 180.316406 C 87.816406 180.316406 87.949219 180.34375 88.074219 180.394531 C 88.199219 180.449219 88.308594 180.523438 88.40625 180.617188 C 88.503906 180.714844 88.578125 180.824219 88.628906 180.949219 C 88.679688 181.074219 88.707031 181.207031 88.707031 181.34375 Z M 88.707031 181.34375 " fill-opacity="1" fill-rule="nonzero"/></g></svg>