<?xml version="1.0" encoding="UTF-8"?>
<svg id="Ebene_1" data-name="Ebene 1" xmlns="http://www.w3.org/2000/svg" viewBox="0 0 462.68 515.97">
  <defs>
    <style>
      .cls-1 {
        fill: #3f3d56;
      }

      .cls-2 {
        fill-rule: evenodd;
      }

      .cls-2, .cls-3 {
        fill: #1d1d1b;
      }

      .cls-4 {
        fill: #ccc;
      }

      .cls-5 {
        stroke: #000;
        stroke-miterlimit: 10;
      }

      .cls-5, .cls-6 {
        fill: #fff;
      }

      .cls-7 {
        fill: #896129;
      }

      .cls-8 {
        fill: #badd7f;
      }
    </style>
  </defs>
  <path class="cls-1" d="M193.62,293.46c1.25.54,1.82,1.98,1.29,3.23h0s-3.34,7.76-3.34,7.76l.38.19-2.28,5.26-.36-.2-11.96,27.79c-.85,1.97-3.02,3-5.08,2.42l-18.6-5.28c-1.71-.49-2.71-2.27-2.22-3.99.05-.18.12-.35.2-.52l18.75-38.88c.81-1.68,2.68-2.58,4.5-2.16l18.3,4.24h0c.15.03.3.08.44.14Z"/>
  <path class="cls-8" d="M178.14,292.07l9.62,2.23c.36.08.72-.08.9-.41h0c.2-.37.61-.55,1.01-.46l2.03.47c1.04.24,1.69,1.28,1.45,2.33-.03.11-.06.22-.11.33l-17.31,40.3c-.44,1.04-1.6,1.57-2.67,1.25l-18.47-5.57c-.9-.27-1.42-1.23-1.14-2.13.02-.08.06-.16.09-.24l18.3-38.63c.56-1.17,1.85-1.8,3.12-1.51l2.14.49c-.11.71.35,1.39,1.05,1.55Z"/>
  <path class="cls-4" d="M253.14,84c-23.2,0-42-18.8-42-42S229.94,0,253.14,0s42,18.8,42,42c-.03,23.19-18.81,41.97-42,42ZM253.14,2c-22.09,0-40,17.91-40,40s17.91,40,40,40,40-17.91,40-40c-.02-22.08-17.92-39.98-40-40h0Z"/>
  <path class="cls-4" d="M415.14,123c-23.2,0-42-18.8-42-42s18.8-42,42-42,42,18.8,42,42c-.03,23.19-18.81,41.97-42,42ZM415.14,41c-22.09,0-40,17.91-40,40s17.91,40,40,40,40-17.91,40-40c-.02-22.08-17.92-39.98-40-40h0Z"/>
  <path class="cls-4" d="M340.14,256c-23.2,0-42-18.8-42-42s18.8-42,42-42,42,18.8,42,42c-.03,23.19-18.81,41.97-42,42ZM340.14,174c-22.09,0-40,17.91-40,40s17.91,40,40,40,40-17.91,40-40c-.02-22.08-17.92-39.98-40-40Z"/>
  <path class="cls-3" d="M439.14,69.5l5-1s-4.2,4.7-5,5h0c-.07,1-.07,2,0,3-9.6,41.2-45,23-45,23,12.9.3,14-5,14-5-7.5-1.1-9-6-9-6,1.39.74,3.12.3,4-1-8.1-2.1-7-10-7-10,1.44,1.04,3.13,1.7,4.9,1.9-.9-1.1-8.5-10.2-3.9-14.9,0,0,5.6,10,20.3,10.9l1-.2c-.17-.72-.24-1.46-.2-2.2,0-5.8,4.7-10.5,10.5-10.5h0c7,0,8.5,4,8.5,4l5-3c-.1,0-.6,5-3.1,6Z"/>
  <path class="cls-3" d="M358.81,191h-37.06c-2-.09-3.7,1.45-3.79,3.45,0,0,0,.01,0,.02v37.15c.06,2.08,1.72,3.75,3.8,3.81h37.05c2.03-.08,3.62-1.78,3.56-3.81v-37.15c.03-1.88-1.47-3.43-3.35-3.46-.07,0-.14,0-.2,0ZM331.72,228.02h-6.36s0-19.78,0-19.78h6.36s0,19.78,0,19.78ZM328.76,205.23h-.05c-1.91-.01-3.45-1.57-3.44-3.48s1.57-3.45,3.48-3.44c1.91.01,3.45,1.57,3.44,3.48-.01,1.89-1.54,3.42-3.44,3.44ZM354.97,228.02h-6.36s0-10.82,0-10.82c0-2.59-.93-4.36-3.23-4.36-1.48.01-2.78.95-3.26,2.35-.17.5-.24,1.03-.22,1.56v11.27s-6.36,0-6.36,0v-19.78s6.36,0,6.36,0v2.75c1.18-2.04,3.38-3.27,5.74-3.22,4.18,0,7.34,2.75,7.34,8.69v11.56Z"/>
  <path class="cls-2" d="M280.59,42.16c0-15.16-12.3-27.45-27.46-27.45-15.16,0-27.45,12.3-27.45,27.46,0,13.51,9.83,25,23.17,27.11v-19.18h-6.97v-7.94h6.97v-6.05c0-6.88,4.1-10.68,10.37-10.68,2.06.03,4.11.21,6.15.54v6.76h-3.46c-3.41,0-4.48,2.12-4.48,4.29v5.15h7.61l-1.22,7.94h-6.4v19.19c13.34-2.11,23.17-13.62,23.17-27.13h0Z"/>
  <polygon class="cls-7" points="132.34 503.46 143.77 503.46 149.21 459.36 132.33 459.36 132.34 503.46"/>
  <path class="cls-3" d="M165.82,514.07h-35.93s0-13.88,0-13.88h22.05c7.67,0,13.88,6.21,13.88,13.88h0Z"/>
  <polygon class="cls-7" points="70.71 503.46 82.15 503.46 87.58 459.36 70.71 459.36 70.71 503.46"/>
  <path class="cls-3" d="M104.2,514.07h-35.93s0-13.88,0-13.88h22.05c7.67,0,13.88,6.21,13.88,13.88h0Z"/>
  <circle class="cls-7" cx="104.2" cy="165.42" r="24.56"/>
  <path class="cls-7" d="M188.18,325.6c-.65-5.14-5.34-8.78-10.48-8.13-.55.07-1.09.19-1.62.35l-13.73-16.45-12.03,5.9,19.71,22.96c1.87,4.86,7.33,7.28,12.19,5.4,4.06-1.57,6.53-5.72,5.95-10.04h0Z"/>
  <path class="cls-7" d="M70.05,342.24c2.21-4.68.2-10.27-4.48-12.48-.5-.24-1.02-.43-1.55-.57l-2.76-21.25-13.32-1.47,4.31,29.95c-1.02,5.1,2.28,10.07,7.39,11.1,4.27.86,8.57-1.32,10.41-5.28h0Z"/>
  <path class="cls-5" d="M51.4,329.25c-2.23,0-4.12-1.63-4.45-3.84l-6.56-44.16c-.82-5.56-.16-11.24,1.93-16.45l20.13-50.24c2.58-6.45,9.91-9.59,16.36-7,2.07.83,3.88,2.19,5.25,3.95h0c2.86,3.67,3.46,8.62,1.56,12.87l-9.49,21.23c-10.64,23.81-14.66,50.06-11.62,75.97.25,2.16-1.07,4.19-3.15,4.83l-8.64,2.65c-.43.13-.87.2-1.32.2Z"/>
  <path class="cls-3" d="M98.22,189.98c-14.47.31-26.45-11.16-26.76-25.63-.31-14.47,11.16-26.45,25.63-26.76,2.03-.04,4.06.15,6.04.57,5.4-3.28,11.68-5.49,17.97-4.92s12.52,4.3,14.87,10.16-.17,13.59-6.03,15.98c-3.75,1.53-7.99.79-11.99.17s-8.37-1.02-11.86,1.05-5.05,7.61-1.93,10.19c3.39,2.91,4.62,7.62,3.08,11.82-1.57,4.06-5.85,7.31-9.03,7.38Z"/>
  <path class="cls-3" d="M67.39,494.58c-2.49,0-4.5-2.01-4.5-4.5,0-.04,0-.08,0-.12l4.37-165.82h.48s72.23-1.59,72.23-1.59l12.47,161.24c.14,2.02-1.08,3.88-2.98,4.56l-.14.03-14.18.87c-2.35.79-4.91-.47-5.7-2.82-.05-.15-.09-.3-.13-.46l-23.11-103.4c-.18-.81-.98-1.32-1.79-1.14-.6.13-1.06.62-1.15,1.23l-17.07,107.39c-.34,2.1-2.09,3.67-4.21,3.79l-14.35.73c-.08,0-.15,0-.23,0Z"/>
  <path class="cls-5" d="M88.64,337.87c-8.99,0-16.84-1.36-21.17-5.23-2.79-2.49-3.99-5.88-3.58-10.06,1.54-15.74-1.13-50.25-3.64-76.42-1.16-12.4,2.7-24.75,10.72-34.28,7.72-9.23,18.86-14.93,30.87-15.77,8.27-.59,27.63-1.96,33.65,13.45,9.04,23.16,4.62,33.78.34,44.04-3.63,8.72-7.39,17.75-2.79,34.69,2.54,9.37,5.62,18.58,9.23,27.6,2.49,6.39,3.75,9.6,2.59,11.7-.91,1.65-3.19,2.37-7.06,3.12-1.27.25-2.94.6-4.93,1.02-10.13,2.15-28.85,6.13-44.23,6.13Z"/>
  <path class="cls-5" d="M162.44,323.35s-.07,0-.1,0c-1.31-.03-2.54-.63-3.38-1.64l-25.46-31.02c-5.44-6.63-9.02-14.58-10.37-23.04l-7.84-48.99c-1.1-6.86,3.58-13.32,10.44-14.41s13.32,3.58,14.41,10.44c.03.16.05.33.07.49l3.12,25.98c2.88,24,12.19,46.78,26.94,65.93l1.78,2.31c1.33,1.72,1.23,4.14-.22,5.76l-6.05,6.72c-.85.95-2.07,1.49-3.34,1.49Z"/>
  <ellipse class="cls-1" cx="284.51" cy="76.9" rx="16.75" ry="16.93"/>
  <path class="cls-1" d="M287.86,85.93h-3.41v-12.99c-1.26,1.18-2.76,2.08-4.41,2.61v-3.13c1.06-.39,2.04-.95,2.9-1.67.98-.73,1.72-1.73,2.15-2.88h2.77v18.06Z"/>
  <ellipse class="cls-8" cx="284.51" cy="76.9" rx="16.75" ry="16.93"/>
  <path class="cls-6" d="M287.86,85.93h-3.41v-12.99c-1.26,1.18-2.76,2.08-4.41,2.61v-3.13c1.06-.39,2.04-.95,2.9-1.67.98-.73,1.72-1.73,2.15-2.88h2.77v18.06Z"/>
  <circle class="cls-1" cx="445.75" cy="119.25" r="16.93"/>
  <path class="cls-1" d="M443.74,122.01c-.06.91.2,1.81.73,2.55.38.55,1,.88,1.66.9.59,0,1.14-.27,1.5-.74.46-.72.67-1.56.6-2.41.07-.89-.16-1.78-.65-2.53-.67-.89-1.94-1.07-2.83-.39-.14.1-.26.22-.36.36-.47.65-.7,1.46-.64,2.26ZM451.08,114.62l-3.14.36c-.02-.55-.24-1.08-.6-1.5-.33-.33-.79-.5-1.26-.48-.7,0-1.36.37-1.74.96-.63,1.25-.93,2.63-.89,4.02.71-.95,1.83-1.51,3.01-1.5,1.34,0,2.62.59,3.47,1.62.99,1.16,1.51,2.65,1.45,4.17.08,1.59-.47,3.16-1.52,4.35-2.06,2.14-5.47,2.19-7.6.13-.18-.18-.35-.37-.51-.57-1.1-1.39-1.65-3.66-1.65-6.82s.57-5.58,1.72-7.01c1.06-1.39,2.72-2.19,4.46-2.15,1.17-.04,2.31.36,3.19,1.13.9.87,1.47,2.03,1.61,3.27h0Z"/>
  <circle class="cls-8" cx="445.75" cy="119.25" r="16.93"/>
  <path class="cls-6" d="M443.74,122.01c-.06.91.2,1.81.73,2.55.38.55,1,.88,1.66.9.59,0,1.14-.27,1.5-.74.46-.72.67-1.56.6-2.41.07-.89-.16-1.78-.65-2.53-.67-.89-1.94-1.07-2.83-.39-.14.1-.26.22-.36.36-.47.65-.7,1.46-.64,2.26ZM451.08,114.62l-3.14.36c-.02-.55-.24-1.08-.6-1.5-.33-.33-.79-.5-1.26-.48-.7,0-1.36.37-1.74.96-.63,1.25-.93,2.63-.89,4.02.71-.95,1.83-1.51,3.01-1.5,1.34,0,2.62.59,3.47,1.62.99,1.16,1.51,2.65,1.45,4.17.08,1.59-.47,3.16-1.52,4.35-2.06,2.14-5.47,2.19-7.6.13-.18-.18-.35-.37-.51-.57-1.1-1.39-1.65-3.66-1.65-6.82s.57-5.58,1.72-7.01c1.06-1.39,2.72-2.19,4.46-2.15,1.17-.04,2.31.36,3.19,1.13.9.87,1.47,2.03,1.61,3.27h0Z"/>
  <circle class="cls-1" cx="374.51" cy="250.04" r="16.93"/>
  <path class="cls-1" d="M372.41,245.81c-.04.58.17,1.15.56,1.58.39.39.93.59,1.48.57.56.03,1.1-.18,1.5-.57.39-.43.6-1,.56-1.59.03-.56-.17-1.11-.56-1.53-.39-.39-.92-.6-1.47-.57-.56-.03-1.11.18-1.51.58-.39.41-.59.97-.56,1.53ZM372.11,253.38c-.05.79.2,1.57.7,2.18.43.51,1.07.8,1.74.78.65.01,1.27-.26,1.69-.75.48-.62.72-1.39.67-2.18.04-.73-.21-1.44-.68-1.99-.43-.49-1.06-.77-1.72-.76-.71-.05-1.39.28-1.8.86-.38.54-.59,1.19-.59,1.86h0ZM371.73,249.22c-.77-.3-1.42-.83-1.86-1.53-.39-.64-.59-1.38-.58-2.13-.04-1.23.45-2.42,1.34-3.27,2.25-1.72,5.36-1.72,7.61,0,.9.85,1.39,2.04,1.35,3.27.03,1.59-.9,3.03-2.37,3.65,1.8.67,2.98,2.42,2.92,4.34.16,2.89-2.05,5.35-4.94,5.51-.2.01-.41.01-.61,0-1.41.05-2.79-.4-3.9-1.27-1.23-1-1.91-2.52-1.84-4.1,0-.92.23-1.83.69-2.63.5-.84,1.27-1.49,2.18-1.85h0Z"/>
  <circle class="cls-8" cx="374.51" cy="250.04" r="16.93"/>
  <path class="cls-6" d="M372.41,245.81c-.04.58.17,1.15.56,1.58.39.39.93.59,1.48.57.56.03,1.1-.18,1.5-.57.39-.43.6-1,.56-1.59.03-.56-.17-1.11-.56-1.53-.39-.39-.92-.6-1.47-.57-.56-.03-1.11.18-1.51.58-.39.41-.59.97-.56,1.53ZM372.11,253.38c-.05.79.2,1.57.7,2.18.43.51,1.07.8,1.74.78.65.01,1.27-.26,1.69-.75.48-.62.72-1.39.67-2.18.04-.73-.21-1.44-.68-1.99-.43-.49-1.06-.77-1.72-.76-.71-.05-1.39.28-1.8.86-.38.54-.59,1.19-.59,1.86h0ZM371.73,249.22c-.77-.3-1.42-.83-1.86-1.53-.39-.64-.59-1.38-.58-2.13-.04-1.23.45-2.42,1.34-3.27,2.25-1.72,5.36-1.72,7.61,0,.9.85,1.39,2.04,1.35,3.27.03,1.59-.9,3.03-2.37,3.65,1.8.67,2.98,2.42,2.92,4.34.16,2.89-2.05,5.35-4.94,5.51-.2.01-.41.01-.61,0-1.41.05-2.79-.4-3.9-1.27-1.23-1-1.91-2.52-1.84-4.1,0-.92.23-1.83.69-2.63.5-.84,1.27-1.49,2.18-1.85h0Z"/>
  <path class="cls-4" d="M232,515.97H1c-.55,0-1-.45-1-1s.45-1,1-1h231c.55,0,1,.45,1,1s-.45,1-1,1Z"/>
</svg>