<svg xmlns="http://www.w3.org/2000/svg" xmlns:xlink="http://www.w3.org/1999/xlink" width="500" zoomAndPan="magnify" viewBox="0 0 375 374.999991" height="500" preserveAspectRatio="xMidYMid meet" version="1.0"><defs><clipPath id="f065474113"><path d="M 178 136 L 222.828125 136 L 222.828125 188.675781 L 178 188.675781 Z M 178 136 " clip-rule="nonzero"/></clipPath><clipPath id="6ed480b924"><path d="M 152.328125 126 L 171 126 L 171 136 L 152.328125 136 Z M 152.328125 126 " clip-rule="nonzero"/></clipPath><clipPath id="27a26d2960"><path d="M 183 106.925781 L 191 106.925781 L 191 127 L 183 127 Z M 183 106.925781 " clip-rule="nonzero"/></clipPath></defs><path fill="#badd7f" d="M 134.480469 106.976562 C 138.992188 98.40625 149.417969 97.90625 158.164062 98.707031 C 167.9375 99.609375 172.972656 97.003906 181.21875 92.21875 C 187.910156 88.332031 194.097656 88.457031 201.191406 92.089844 C 209.761719 96.503906 208.007812 104.394531 214.949219 109.410156 C 221.390625 114.070312 231.113281 111.988281 237.953125 116.300781 C 244.820312 120.636719 246.675781 128.128906 246.300781 135.871094 C 245.773438 146.421875 240.335938 156.296875 242.265625 166.996094 C 243.820312 175.617188 252.816406 184.464844 248.328125 193.5625 C 239.933594 210.578125 213.722656 196.320312 200.238281 198.800781 C 185.652344 201.507812 163.550781 217.671875 149.515625 203.308594 C 143.300781 196.96875 146.660156 186.871094 146.535156 179.128906 C 146.359375 168.351562 142.675781 165.09375 135.15625 158.074219 C 127.914062 151.335938 122.175781 147.976562 125.03125 137.777344 C 126.734375 131.664062 135.054688 130.308594 136.609375 126.273438 C 138.488281 121.238281 131.898438 111.839844 134.480469 106.976562 Z M 134.480469 106.976562 " fill-opacity="1" fill-rule="nonzero"/><g clip-path="url(#f065474113)"><path fill="#efaca5" d="M 208.195312 166.25 C 208.285156 166.355469 208.316406 166.417969 208.367188 166.445312 C 208.675781 166.613281 208.8125 166.910156 208.957031 167.207031 C 209.003906 167.308594 209.089844 167.398438 209.171875 167.472656 C 209.40625 167.6875 209.648438 167.890625 209.882812 168.101562 C 209.964844 168.175781 210.015625 168.285156 210.105469 168.34375 C 210.4375 168.5625 210.609375 168.910156 210.816406 169.222656 C 211.019531 169.53125 211.210938 169.84375 211.554688 170.011719 C 211.5625 170.015625 211.574219 170.023438 211.578125 170.03125 C 211.902344 170.59375 212.574219 170.808594 212.921875 171.324219 C 213.199219 171.738281 213.5625 172.007812 213.953125 172.261719 C 214.242188 172.449219 214.4375 172.71875 214.679688 172.949219 C 214.984375 173.242188 215.296875 173.523438 215.5625 173.859375 C 215.648438 173.96875 215.796875 174.03125 215.910156 174.125 C 216.351562 174.476562 216.640625 174.949219 216.953125 175.40625 C 217.054688 175.554688 217.191406 175.679688 217.320312 175.808594 C 217.671875 176.164062 218.035156 176.503906 218.382812 176.863281 C 218.691406 177.1875 218.984375 177.523438 219.285156 177.851562 C 219.414062 177.992188 219.554688 178.117188 219.6875 178.253906 C 220.054688 178.628906 220.351562 179.054688 220.496094 179.5625 C 220.589844 179.886719 220.464844 180.210938 220.304688 180.480469 C 220.113281 180.808594 219.828125 181.066406 219.476562 181.253906 C 219.195312 181.410156 218.945312 181.628906 218.675781 181.816406 C 218.425781 181.992188 218.171875 182.167969 217.917969 182.347656 C 217.449219 182.679688 217.023438 183.0625 216.621094 183.472656 C 216.160156 183.9375 215.71875 184.441406 215.199219 184.832031 C 214.585938 185.296875 214.019531 185.800781 213.472656 186.335938 C 213.054688 186.742188 212.632812 187.148438 212.175781 187.503906 C 211.835938 187.769531 211.527344 188.089844 211.101562 188.238281 C 210.96875 188.285156 210.847656 188.386719 210.746094 188.488281 C 210.574219 188.652344 210.363281 188.65625 210.183594 188.597656 C 209.898438 188.507812 209.605469 188.398438 209.375 188.21875 C 208.976562 187.917969 208.628906 187.554688 208.257812 187.21875 C 208.238281 187.199219 208.214844 187.175781 208.210938 187.152344 C 208.144531 186.738281 207.75 186.585938 207.519531 186.300781 C 207.289062 186.015625 206.988281 185.78125 206.746094 185.503906 C 206.410156 185.121094 206.027344 184.753906 205.855469 184.277344 C 205.71875 183.902344 205.476562 183.714844 205.164062 183.53125 C 204.816406 183.328125 204.589844 183.015625 204.503906 182.601562 C 204.472656 182.445312 204.351562 182.296875 204.242188 182.167969 C 203.925781 181.804688 203.515625 181.53125 203.277344 181.085938 C 203.140625 180.835938 202.890625 180.652344 202.71875 180.417969 C 202.386719 179.953125 201.976562 179.578125 201.511719 179.253906 C 201.460938 179.214844 201.417969 179.164062 201.378906 179.117188 C 201.1875 178.875 200.984375 178.640625 200.804688 178.390625 C 200.636719 178.15625 200.492188 177.90625 200.339844 177.660156 C 200.316406 177.621094 200.308594 177.566406 200.277344 177.542969 C 199.785156 177.164062 199.535156 176.582031 199.097656 176.15625 C 198.902344 175.96875 198.746094 175.742188 198.558594 175.546875 C 198.296875 175.28125 198.019531 175.035156 197.757812 174.777344 C 197.542969 174.566406 197.332031 174.351562 197.125 174.132812 C 196.808594 173.792969 196.496094 173.453125 196.183594 173.109375 C 196.070312 172.988281 195.976562 173.027344 195.890625 173.140625 C 195.535156 173.617188 195.238281 174.125 195.027344 174.683594 C 194.964844 174.847656 194.847656 175 194.730469 175.132812 C 194.507812 175.386719 194.253906 175.613281 194.035156 175.867188 C 193.902344 176.015625 193.816406 176.203125 193.703125 176.363281 C 193.597656 176.511719 193.488281 176.660156 193.363281 176.789062 C 192.785156 177.367188 192.351562 178.046875 191.921875 178.738281 C 191.660156 179.160156 191.464844 179.625 191.101562 179.988281 C 190.941406 180.152344 190.863281 180.394531 190.738281 180.59375 C 190.59375 180.824219 190.460938 181.066406 190.289062 181.269531 C 190.015625 181.585938 189.699219 181.863281 189.425781 182.179688 C 189.027344 182.644531 188.472656 182.824219 187.933594 183.042969 C 187.402344 183.261719 187.074219 183.09375 186.703125 182.667969 C 186.371094 182.285156 186.125 181.832031 185.96875 181.335938 C 185.949219 181.269531 185.90625 181.195312 185.917969 181.128906 C 185.957031 180.90625 185.867188 180.722656 185.726562 180.578125 C 185.449219 180.289062 185.339844 179.929688 185.238281 179.5625 C 185.15625 179.261719 185.074219 178.964844 185.003906 178.664062 C 184.929688 178.363281 184.859375 178.0625 184.816406 177.757812 C 184.777344 177.453125 184.65625 177.1875 184.5 176.925781 C 184.3125 176.613281 184.25 176.269531 184.308594 175.90625 C 184.359375 175.582031 184.316406 175.273438 184.207031 174.964844 C 184.089844 174.621094 183.996094 174.269531 183.902344 173.917969 C 183.832031 173.65625 183.777344 173.386719 183.71875 173.121094 C 183.691406 172.996094 183.644531 172.871094 183.652344 172.746094 C 183.683594 171.933594 183.492188 171.140625 183.402344 170.339844 C 183.328125 169.648438 183.179688 168.960938 183.046875 168.273438 C 183.019531 168.117188 182.917969 167.972656 182.890625 167.816406 C 182.851562 167.585938 182.855469 167.347656 182.824219 167.117188 C 182.804688 166.953125 182.773438 166.789062 182.710938 166.640625 C 182.546875 166.238281 182.386719 165.851562 182.367188 165.390625 C 182.34375 164.929688 182.152344 164.472656 182.054688 164.011719 C 181.980469 163.667969 181.9375 163.320312 181.878906 162.972656 C 181.855469 162.820312 181.832031 162.667969 181.804688 162.515625 C 181.746094 162.167969 181.734375 161.796875 181.609375 161.472656 C 181.347656 160.785156 181.300781 160.074219 181.214844 159.363281 C 181.152344 158.835938 181.089844 158.3125 181.023438 157.789062 C 181.015625 157.726562 181 157.660156 180.980469 157.601562 C 180.675781 156.722656 180.609375 155.808594 180.523438 154.886719 C 180.445312 154.078125 180.464844 153.25 180.152344 152.46875 C 180.078125 152.28125 180.054688 152.046875 180.09375 151.847656 C 180.175781 151.414062 180.054688 151.011719 179.945312 150.609375 C 179.84375 150.242188 179.71875 149.894531 179.761719 149.496094 C 179.789062 149.242188 179.71875 148.96875 179.648438 148.714844 C 179.503906 148.210938 179.515625 147.691406 179.472656 147.175781 C 179.425781 146.625 179.351562 146.074219 179.289062 145.519531 C 179.28125 145.441406 179.253906 145.363281 179.25 145.28125 C 179.230469 144.746094 179.25 144.210938 179.101562 143.6875 C 179.058594 143.53125 179.054688 143.363281 179.007812 143.203125 C 178.929688 142.9375 178.828125 142.675781 178.746094 142.40625 C 178.703125 142.277344 178.664062 142.144531 178.660156 142.011719 C 178.652344 141.703125 178.679688 141.390625 178.667969 141.082031 C 178.660156 140.914062 178.613281 140.742188 178.570312 140.578125 C 178.441406 140.09375 178.324219 139.609375 178.175781 139.132812 C 178.066406 138.777344 178.089844 138.453125 178.285156 138.136719 C 178.347656 138.03125 178.386719 137.902344 178.390625 137.78125 C 178.410156 136.996094 179.183594 136.4375 179.90625 136.738281 C 180.566406 137.015625 181.238281 137.226562 181.925781 137.410156 C 182.054688 137.441406 182.175781 137.523438 182.285156 137.605469 C 182.859375 138.035156 183.433594 138.46875 184.007812 138.902344 C 184.078125 138.953125 184.15625 139.011719 184.242188 139.035156 C 184.714844 139.148438 185.152344 139.339844 185.574219 139.585938 C 185.636719 139.621094 185.699219 139.660156 185.765625 139.6875 C 186.226562 139.894531 186.679688 140.128906 187.15625 140.292969 C 187.453125 140.394531 187.695312 140.539062 187.945312 140.714844 C 188.125 140.839844 188.339844 140.929688 188.554688 140.988281 C 188.957031 141.101562 189.246094 141.394531 189.597656 141.582031 C 189.683594 141.628906 189.773438 141.671875 189.867188 141.703125 C 190.277344 141.851562 190.675781 142.015625 191 142.328125 C 191.148438 142.464844 191.351562 142.539062 191.53125 142.644531 C 191.851562 142.828125 192.167969 143.027344 192.5 143.191406 C 192.777344 143.324219 192.996094 143.554688 193.34375 143.597656 C 193.617188 143.628906 193.867188 143.828125 194.128906 143.949219 C 194.347656 144.054688 194.570312 144.152344 194.792969 144.25 C 195.074219 144.375 195.367188 144.484375 195.636719 144.628906 C 195.894531 144.761719 196.125 144.945312 196.378906 145.089844 C 196.742188 145.296875 197.132812 145.460938 197.476562 145.695312 C 197.792969 145.914062 198.136719 146.097656 198.382812 146.421875 C 198.5 146.574219 198.714844 146.664062 198.894531 146.757812 C 199.160156 146.894531 199.441406 147 199.707031 147.132812 C 199.949219 147.253906 200.191406 147.378906 200.425781 147.519531 C 200.675781 147.667969 200.925781 147.816406 201.152344 147.996094 C 201.644531 148.378906 202.179688 148.667969 202.792969 148.800781 C 202.992188 148.839844 203.164062 148.910156 203.320312 149.066406 C 203.515625 149.261719 203.765625 149.402344 203.992188 149.566406 C 204.011719 149.582031 204.039062 149.605469 204.0625 149.601562 C 204.449219 149.589844 204.683594 149.878906 204.972656 150.046875 C 205.027344 150.078125 205.085938 150.113281 205.144531 150.132812 C 205.777344 150.335938 206.382812 150.59375 206.972656 150.894531 C 207.070312 150.945312 207.179688 150.96875 207.277344 151.015625 C 207.605469 151.171875 207.929688 151.335938 208.257812 151.492188 C 208.320312 151.523438 208.394531 151.574219 208.457031 151.570312 C 208.917969 151.535156 209.273438 151.761719 209.621094 152.015625 C 209.757812 152.117188 209.929688 152.171875 210.089844 152.242188 C 210.421875 152.382812 210.761719 152.507812 211.089844 152.660156 C 211.28125 152.746094 211.453125 152.871094 211.632812 152.972656 C 211.703125 153.015625 211.777344 153.070312 211.851562 153.082031 C 212.375 153.175781 212.773438 153.507812 213.207031 153.769531 C 213.289062 153.820312 213.390625 153.882812 213.480469 153.878906 C 213.875 153.851562 214.164062 154.097656 214.492188 154.238281 C 214.886719 154.410156 215.1875 154.75 215.644531 154.8125 C 215.847656 154.839844 216.039062 154.992188 216.226562 155.105469 C 216.757812 155.429688 217.28125 155.765625 217.8125 156.09375 C 218.207031 156.339844 218.613281 156.5625 219.089844 156.628906 C 219.191406 156.640625 219.28125 156.714844 219.382812 156.75 C 219.765625 156.878906 219.992188 157.191406 220.25 157.46875 C 220.328125 157.550781 220.433594 157.625 220.539062 157.667969 C 220.730469 157.742188 220.839844 157.863281 220.820312 158.066406 C 221.113281 158.199219 221.386719 158.328125 221.566406 158.605469 C 221.621094 158.691406 221.753906 158.742188 221.863281 158.777344 C 222.023438 158.824219 222.148438 158.886719 222.226562 159.042969 C 222.257812 159.105469 222.308594 159.160156 222.355469 159.21875 C 222.644531 159.601562 222.621094 160.042969 222.3125 160.414062 C 221.933594 160.863281 221.484375 161.175781 220.894531 161.277344 C 220.742188 161.304688 220.582031 161.390625 220.460938 161.492188 C 220.039062 161.832031 219.589844 162.085938 219.050781 162.214844 C 218.59375 162.324219 218.210938 162.613281 217.867188 162.929688 C 217.609375 163.167969 217.316406 163.304688 216.988281 163.410156 C 216.679688 163.507812 216.386719 163.664062 216.089844 163.796875 C 215.730469 163.957031 215.375 164.128906 215.011719 164.277344 C 214.890625 164.328125 214.742188 164.359375 214.613281 164.347656 C 214.21875 164.308594 213.921875 164.558594 213.578125 164.664062 C 213.222656 164.773438 212.871094 164.894531 212.519531 165.019531 C 212.144531 165.148438 211.75 165.132812 211.367188 165.199219 C 211.199219 165.230469 211.039062 165.300781 210.875 165.359375 C 210.519531 165.496094 210.164062 165.636719 209.804688 165.773438 C 209.757812 165.789062 209.695312 165.808594 209.644531 165.796875 C 209.304688 165.71875 209 165.777344 208.710938 165.980469 C 208.570312 166.082031 208.398438 166.148438 208.195312 166.25 Z M 208.195312 166.25 " fill-opacity="1" fill-rule="nonzero"/></g><g clip-path="url(#6ed480b924)"><path fill="#efaca5" d="M 153.183594 126.355469 C 153.6875 126.402344 154.101562 126.441406 154.519531 126.488281 C 154.617188 126.496094 154.71875 126.519531 154.804688 126.566406 C 154.9375 126.640625 155.058594 126.710938 155.214844 126.632812 C 155.25 126.617188 155.304688 126.632812 155.347656 126.644531 C 155.730469 126.765625 156.113281 126.882812 156.492188 127.011719 C 156.742188 127.097656 156.960938 127.234375 157.164062 127.417969 C 157.320312 127.558594 157.539062 127.632812 157.730469 127.738281 C 157.808594 127.78125 157.890625 127.824219 157.957031 127.886719 C 158.132812 128.050781 158.289062 128.210938 158.574219 128.132812 C 158.652344 128.109375 158.769531 128.234375 158.875 128.285156 C 158.992188 128.347656 159.109375 128.40625 159.230469 128.460938 C 159.328125 128.507812 159.4375 128.539062 159.519531 128.601562 C 159.902344 128.914062 160.359375 129.015625 160.824219 129.113281 C 161.285156 129.210938 161.730469 129.328125 162.140625 129.59375 C 162.59375 129.890625 163.058594 130.175781 163.582031 130.355469 C 163.855469 130.449219 164.085938 130.648438 164.347656 130.773438 C 164.519531 130.855469 164.707031 130.941406 164.886719 130.945312 C 165.363281 130.953125 165.777344 131.085938 166.140625 131.398438 C 166.199219 131.449219 166.277344 131.507812 166.351562 131.515625 C 166.761719 131.5625 167.082031 131.769531 167.375 132.042969 C 167.394531 132.058594 167.414062 132.082031 167.4375 132.09375 C 167.859375 132.28125 168.285156 132.453125 168.699219 132.65625 C 168.972656 132.792969 169.242188 132.914062 169.53125 133.015625 C 169.746094 133.085938 169.902344 133.34375 170.082031 133.523438 C 170.113281 133.554688 170.128906 133.609375 170.164062 133.628906 C 170.511719 133.820312 170.585938 134.140625 170.640625 134.5 C 170.699219 134.890625 170.546875 135.171875 170.277344 135.417969 C 170.253906 135.441406 170.210938 135.464844 170.179688 135.464844 C 169.878906 135.441406 169.570312 135.425781 169.273438 135.375 C 169 135.332031 168.773438 135.148438 168.488281 135.09375 C 168.1875 135.039062 167.914062 134.855469 167.625 134.734375 C 167.492188 134.683594 167.351562 134.621094 167.214844 134.621094 C 166.824219 134.621094 166.453125 134.554688 166.097656 134.390625 C 166 134.34375 165.894531 134.308594 165.789062 134.28125 C 165.582031 134.21875 165.382812 134.160156 165.199219 134.015625 C 165.082031 133.921875 164.902344 133.910156 164.753906 133.855469 C 164.640625 133.816406 164.53125 133.773438 164.421875 133.726562 C 164.265625 133.660156 164.101562 133.605469 163.949219 133.523438 C 163.78125 133.433594 163.621094 133.332031 163.46875 133.21875 C 163.285156 133.078125 163.105469 132.960938 162.859375 132.945312 C 162.746094 132.941406 162.640625 132.832031 162.527344 132.777344 C 162.382812 132.707031 162.238281 132.621094 162.085938 132.582031 C 161.769531 132.507812 161.449219 132.457031 161.128906 132.402344 C 160.84375 132.351562 160.628906 132.199219 160.445312 131.980469 C 160.269531 131.773438 160.03125 131.707031 159.769531 131.691406 C 159.6875 131.683594 159.605469 131.683594 159.527344 131.664062 C 159.289062 131.605469 159.046875 131.558594 158.816406 131.472656 C 158.652344 131.410156 158.507812 131.292969 158.355469 131.203125 C 158.121094 131.070312 157.894531 130.886719 157.640625 130.820312 C 157.265625 130.722656 156.976562 130.484375 156.660156 130.296875 C 156.277344 130.074219 155.925781 129.796875 155.542969 129.574219 C 155.308594 129.4375 155.027344 129.382812 154.792969 129.25 C 154.53125 129.097656 154.292969 128.894531 154.046875 128.714844 C 153.839844 128.5625 153.648438 128.394531 153.433594 128.257812 C 153.101562 128.046875 152.828125 127.800781 152.707031 127.40625 C 152.664062 127.261719 152.554688 127.140625 152.472656 127.007812 C 152.351562 126.804688 152.359375 126.683594 152.570312 126.578125 C 152.785156 126.472656 153.023438 126.414062 153.183594 126.355469 Z M 153.183594 126.355469 " fill-opacity="1" fill-rule="nonzero"/></g><path fill="#efaca5" d="M 171.699219 151.292969 C 171.683594 151.671875 171.453125 151.917969 171.261719 152.179688 C 171.097656 152.40625 170.882812 152.59375 170.726562 152.824219 C 170.515625 153.140625 170.246094 153.363281 169.902344 153.507812 C 169.835938 153.535156 169.757812 153.566406 169.714844 153.617188 C 169.472656 153.890625 169.238281 154.164062 169.007812 154.441406 C 168.972656 154.484375 168.9375 154.539062 168.9375 154.589844 C 168.9375 154.835938 168.769531 154.910156 168.574219 154.960938 C 168.421875 155 168.273438 155.039062 168.125 155.082031 C 167.851562 155.15625 167.621094 155.300781 167.460938 155.535156 C 167.289062 155.785156 167.046875 155.929688 166.78125 156.058594 C 166.4375 156.230469 166.128906 156.464844 165.941406 156.804688 C 165.761719 157.132812 165.4375 157.269531 165.15625 157.46875 C 164.996094 157.582031 164.859375 157.730469 164.699219 157.84375 C 164.460938 158.011719 164.214844 158.164062 163.96875 158.320312 C 163.558594 158.585938 163.175781 158.871094 162.933594 159.3125 C 162.851562 159.464844 162.738281 159.601562 162.542969 159.625 C 162.507812 159.628906 162.46875 159.648438 162.441406 159.671875 C 161.960938 160.128906 161.328125 160.34375 160.792969 160.710938 C 160.65625 160.804688 160.523438 160.898438 160.394531 161.003906 C 160.25 161.121094 160.074219 161.160156 159.914062 161.234375 C 159.648438 161.363281 159.398438 161.546875 159.191406 161.757812 C 158.988281 161.96875 158.757812 162.109375 158.507812 162.238281 C 158.234375 162.382812 157.980469 162.570312 157.707031 162.707031 C 157.464844 162.828125 157.207031 162.910156 156.949219 163 C 156.828125 163.039062 156.773438 162.953125 156.789062 162.847656 C 156.804688 162.703125 156.816406 162.546875 156.882812 162.421875 C 157.09375 162.011719 157.328125 161.613281 157.546875 161.207031 C 157.601562 161.113281 157.628906 161.003906 157.679688 160.914062 C 157.902344 160.523438 158.179688 160.175781 158.503906 159.863281 C 158.59375 159.777344 158.65625 159.660156 158.726562 159.558594 C 158.820312 159.421875 158.914062 159.289062 159.007812 159.15625 C 159.125 158.992188 159.230469 158.824219 159.355469 158.667969 C 159.472656 158.519531 159.59375 158.363281 159.738281 158.246094 C 159.988281 158.054688 160.175781 157.796875 160.480469 157.660156 C 160.636719 157.589844 160.746094 157.402344 160.863281 157.257812 C 161.097656 156.960938 161.296875 156.65625 161.644531 156.449219 C 162.015625 156.234375 162.417969 156.042969 162.714844 155.710938 C 162.765625 155.652344 162.851562 155.589844 162.917969 155.59375 C 163.203125 155.601562 163.351562 155.40625 163.53125 155.242188 C 163.808594 154.984375 164.101562 154.742188 164.390625 154.496094 C 164.445312 154.449219 164.511719 154.414062 164.582031 154.394531 C 165.066406 154.230469 165.484375 153.960938 165.835938 153.59375 C 166.011719 153.40625 166.214844 153.28125 166.457031 153.214844 C 166.636719 153.164062 166.769531 153.078125 166.800781 152.875 C 166.808594 152.820312 166.847656 152.753906 166.894531 152.71875 C 167.191406 152.496094 167.492188 152.28125 167.792969 152.066406 C 168.242188 151.742188 168.671875 151.390625 169.140625 151.097656 C 169.449219 150.902344 169.8125 150.789062 170.117188 150.570312 C 170.1875 150.519531 170.292969 150.527344 170.378906 150.5 C 170.453125 150.476562 170.535156 150.449219 170.59375 150.402344 C 170.859375 150.203125 171.242188 150.230469 171.460938 150.476562 C 171.472656 150.488281 171.492188 150.5 171.496094 150.515625 C 171.566406 150.78125 171.636719 151.046875 171.699219 151.292969 Z M 171.699219 151.292969 " fill-opacity="1" fill-rule="nonzero"/><path fill="#efaca5" d="M 159.28125 115.144531 C 159.417969 115.085938 159.542969 114.988281 159.664062 114.996094 C 159.863281 115.007812 159.9375 114.894531 159.996094 114.777344 C 160.152344 114.765625 160.285156 114.757812 160.46875 114.742188 C 160.855469 115.03125 161.292969 115.355469 161.730469 115.679688 C 161.773438 115.710938 161.828125 115.726562 161.875 115.753906 C 162.105469 115.875 162.335938 115.976562 162.441406 116.265625 C 162.503906 116.433594 162.679688 116.5625 162.808594 116.703125 C 163.1875 117.117188 163.570312 117.527344 163.945312 117.941406 C 163.996094 117.996094 164.050781 118.058594 164.066406 118.125 C 164.136719 118.457031 164.402344 118.601562 164.660156 118.753906 C 164.730469 118.796875 164.800781 118.84375 164.847656 118.90625 C 165.023438 119.160156 165.1875 119.421875 165.363281 119.675781 C 165.496094 119.871094 165.683594 119.992188 165.902344 120.074219 C 166.027344 120.121094 166.179688 120.175781 166.25 120.273438 C 166.515625 120.652344 166.890625 120.914062 167.207031 121.234375 C 167.25 121.28125 167.308594 121.316406 167.355469 121.355469 C 167.589844 121.539062 167.757812 121.753906 167.851562 122.050781 C 167.925781 122.273438 168.074219 122.5 168.253906 122.65625 C 168.613281 122.972656 168.953125 123.328125 169.414062 123.507812 C 169.460938 123.527344 169.511719 123.566406 169.542969 123.609375 C 169.734375 123.882812 169.917969 124.167969 170.121094 124.433594 C 170.222656 124.566406 170.34375 124.722656 170.492188 124.777344 C 170.957031 124.953125 171.277344 125.300781 171.617188 125.632812 C 171.765625 125.777344 171.898438 125.945312 172.050781 126.082031 C 172.277344 126.285156 172.34375 126.566406 172.449219 126.824219 C 172.589844 127.167969 172.691406 127.527344 172.808594 127.882812 C 172.820312 127.914062 172.832031 127.957031 172.820312 127.984375 C 172.734375 128.171875 172.652344 128.363281 172.546875 128.542969 C 172.4375 128.730469 172.300781 128.890625 172.042969 128.742188 C 172 128.71875 171.933594 128.722656 171.882812 128.734375 C 171.585938 128.800781 171.34375 128.65625 171.167969 128.464844 C 170.851562 128.121094 170.460938 127.886719 170.066406 127.671875 C 169.734375 127.488281 169.507812 127.21875 169.25 126.964844 C 169.011719 126.726562 168.785156 126.488281 168.464844 126.339844 C 168.289062 126.261719 168.132812 126.113281 168 125.96875 C 167.714844 125.652344 167.417969 125.351562 167.113281 125.050781 C 166.824219 124.769531 166.515625 124.492188 166.269531 124.167969 C 165.867188 123.632812 165.371094 123.195312 164.878906 122.753906 C 164.78125 122.667969 164.691406 122.550781 164.652344 122.433594 C 164.539062 122.082031 164.242188 121.910156 164 121.679688 C 163.910156 121.589844 163.8125 121.503906 163.738281 121.402344 C 163.378906 120.90625 163.035156 120.390625 162.515625 120.03125 C 162.351562 119.917969 162.226562 119.753906 162.078125 119.621094 C 162.007812 119.554688 161.917969 119.507812 161.839844 119.449219 C 161.75 119.375 161.628906 119.316406 161.589844 119.21875 C 161.414062 118.777344 161.03125 118.507812 160.746094 118.15625 C 160.644531 118.03125 160.542969 117.902344 160.445312 117.773438 C 160.285156 117.554688 160.128906 117.332031 159.96875 117.109375 C 159.664062 116.683594 159.417969 116.234375 159.410156 115.683594 C 159.410156 115.515625 159.332031 115.351562 159.28125 115.144531 Z M 159.28125 115.144531 " fill-opacity="1" fill-rule="nonzero"/><g clip-path="url(#27a26d2960)"><path fill="#efaca5" d="M 190.859375 106.925781 C 191.003906 107.109375 190.917969 107.292969 190.886719 107.460938 C 190.839844 107.726562 190.769531 107.992188 190.691406 108.25 C 190.628906 108.457031 190.527344 108.652344 190.464844 108.859375 C 190.386719 109.117188 190.285156 109.382812 190.28125 109.648438 C 190.277344 109.945312 190.21875 110.199219 190.070312 110.449219 C 189.996094 110.582031 189.960938 110.734375 189.90625 110.878906 C 189.785156 111.1875 189.769531 111.53125 189.53125 111.800781 C 189.421875 111.921875 189.382812 112.109375 189.320312 112.269531 C 189.195312 112.589844 189.050781 112.910156 188.957031 113.238281 C 188.882812 113.5 188.855469 113.773438 188.839844 114.042969 C 188.8125 114.488281 188.8125 114.933594 188.804688 115.382812 C 188.800781 115.417969 188.8125 115.460938 188.796875 115.492188 C 188.671875 115.777344 188.539062 116.066406 188.410156 116.351562 C 188.367188 116.449219 188.292969 116.539062 188.28125 116.640625 C 188.238281 116.941406 188.1875 117.214844 188.003906 117.480469 C 187.726562 117.878906 187.660156 118.371094 187.585938 118.847656 C 187.574219 118.929688 187.578125 119.027344 187.535156 119.085938 C 187.367188 119.3125 187.324219 119.574219 187.316406 119.835938 C 187.304688 120.304688 187.101562 120.714844 186.980469 121.152344 C 186.953125 121.25 186.910156 121.34375 186.898438 121.441406 C 186.875 121.632812 186.859375 121.820312 186.714844 121.96875 C 186.679688 122.007812 186.664062 122.070312 186.664062 122.125 C 186.660156 122.4375 186.488281 122.695312 186.378906 122.972656 C 186.320312 123.125 186.273438 123.28125 186.234375 123.4375 C 186.171875 123.675781 186.121094 123.917969 186.0625 124.15625 C 186.054688 124.203125 186.042969 124.253906 186.011719 124.28125 C 185.683594 124.585938 185.574219 125.003906 185.421875 125.402344 C 185.324219 125.65625 185.191406 125.890625 184.992188 126.089844 C 184.863281 126.222656 184.769531 126.394531 184.679688 126.558594 C 184.582031 126.75 184.332031 126.90625 184.144531 126.835938 C 184.074219 126.8125 183.992188 126.710938 183.984375 126.636719 C 183.960938 126.386719 183.953125 126.132812 183.960938 125.878906 C 183.972656 125.542969 184.019531 125.210938 184.023438 124.871094 C 184.023438 124.746094 184.066406 124.65625 184.109375 124.546875 C 184.171875 124.382812 184.167969 124.195312 184.199219 124.019531 C 184.300781 123.472656 184.394531 122.929688 184.515625 122.386719 C 184.585938 122.078125 184.699219 121.777344 184.804688 121.476562 C 184.878906 121.257812 184.972656 121.042969 185.066406 120.828125 C 185.195312 120.539062 185.179688 120.230469 185.226562 119.929688 C 185.304688 119.453125 185.375 118.980469 185.394531 118.5 C 185.398438 118.417969 185.402344 118.332031 185.382812 118.253906 C 185.277344 117.832031 185.367188 117.457031 185.601562 117.089844 C 185.722656 116.894531 185.761719 116.652344 185.839844 116.429688 C 185.871094 116.335938 185.894531 116.230469 185.957031 116.160156 C 186.136719 115.945312 186.1875 115.691406 186.234375 115.429688 C 186.316406 114.96875 186.371094 114.503906 186.566406 114.0625 C 186.71875 113.707031 186.757812 113.300781 186.90625 112.941406 C 187.085938 112.5 187.21875 112.03125 187.5625 111.667969 C 187.671875 111.550781 187.730469 111.367188 187.761719 111.207031 C 187.816406 110.921875 187.910156 110.675781 188.109375 110.453125 C 188.300781 110.238281 188.425781 109.96875 188.585938 109.726562 C 188.675781 109.582031 188.777344 109.445312 188.867188 109.300781 C 188.957031 109.15625 189.027344 109 189.121094 108.855469 C 189.234375 108.679688 189.339844 108.5 189.480469 108.34375 C 189.882812 107.890625 190.300781 107.449219 190.714844 107.003906 C 190.75 106.96875 190.808594 106.953125 190.859375 106.925781 Z M 190.859375 106.925781 " fill-opacity="1" fill-rule="nonzero"/></g><path fill="#efaca5" d="M 202.867188 124.828125 C 202.820312 124.917969 202.785156 124.988281 202.75 125.054688 C 202.722656 125.113281 202.667969 125.167969 202.671875 125.222656 C 202.683594 125.480469 202.539062 125.640625 202.375 125.804688 C 202.171875 126.011719 201.976562 126.222656 201.800781 126.449219 C 201.421875 126.933594 200.929688 127.289062 200.453125 127.664062 C 200.15625 127.890625 199.894531 128.160156 199.613281 128.402344 C 199.304688 128.660156 198.980469 128.902344 198.679688 129.167969 C 198.503906 129.324219 198.359375 129.515625 198.203125 129.691406 C 198.160156 129.738281 198.136719 129.8125 198.085938 129.835938 C 197.78125 129.960938 197.59375 130.226562 197.355469 130.429688 C 197.21875 130.542969 197.128906 130.71875 196.988281 130.828125 C 196.785156 130.992188 196.539062 131.101562 196.339844 131.269531 C 196.0625 131.5 195.816406 131.769531 195.550781 132.015625 C 195.265625 132.277344 194.972656 132.53125 194.683594 132.785156 C 194.664062 132.804688 194.628906 132.8125 194.621094 132.835938 C 194.457031 133.164062 194.117188 133.21875 193.832031 133.363281 C 193.632812 133.46875 193.460938 133.625 193.265625 133.734375 C 192.839844 133.960938 192.398438 134.121094 191.910156 133.945312 C 191.839844 133.921875 191.742188 133.859375 191.726562 133.796875 C 191.679688 133.585938 191.628906 133.367188 191.648438 133.160156 C 191.65625 133.03125 191.765625 132.886719 191.871094 132.792969 C 192.027344 132.652344 192.144531 132.441406 192.386719 132.410156 C 192.394531 132.410156 192.402344 132.402344 192.40625 132.394531 C 192.734375 132.082031 193.070312 131.78125 193.382812 131.453125 C 193.527344 131.300781 193.664062 131.164062 193.851562 131.054688 C 194.078125 130.921875 194.292969 130.730469 194.457031 130.523438 C 194.625 130.308594 194.730469 130.054688 195.03125 129.984375 C 195.097656 129.964844 195.15625 129.882812 195.203125 129.820312 C 195.539062 129.386719 195.929688 129.011719 196.367188 128.675781 C 196.617188 128.480469 196.90625 128.296875 197.070312 128.039062 C 197.246094 127.769531 197.484375 127.582031 197.707031 127.378906 C 198.011719 127.097656 198.324219 126.828125 198.578125 126.492188 C 198.660156 126.382812 198.824219 126.34375 198.945312 126.265625 C 199.339844 126.011719 199.664062 125.695312 199.933594 125.304688 C 200.082031 125.089844 200.308594 124.933594 200.570312 124.820312 C 201 124.636719 201.460938 124.5 201.796875 124.132812 C 201.875 124.050781 201.988281 123.996094 202.089844 123.941406 C 202.265625 123.847656 202.449219 123.765625 202.628906 123.683594 C 202.886719 123.558594 203.152344 123.4375 203.410156 123.308594 C 203.636719 123.191406 203.847656 123.050781 204.074219 122.941406 C 204.546875 122.710938 205.023438 122.492188 205.5 122.273438 C 205.558594 122.25 205.65625 122.230469 205.691406 122.257812 C 205.746094 122.300781 205.765625 122.390625 205.789062 122.460938 C 205.800781 122.492188 205.785156 122.539062 205.761719 122.566406 C 205.5625 122.792969 205.5 123.136719 205.179688 123.265625 C 205.132812 123.285156 205.089844 123.332031 205.058594 123.375 C 204.847656 123.683594 204.542969 123.851562 204.191406 123.945312 C 204.046875 123.984375 203.96875 124.054688 203.90625 124.199219 C 203.785156 124.496094 203.601562 124.734375 203.226562 124.726562 C 203.105469 124.726562 202.984375 124.792969 202.867188 124.828125 Z M 202.867188 124.828125 " fill-opacity="1" fill-rule="nonzero"/><path fill="#efaca5" d="M 188.308594 109.90625 C 188.320312 109.914062 188.332031 109.925781 188.335938 109.9375 C 188.339844 109.941406 188.328125 109.960938 188.324219 109.957031 C 188.308594 109.957031 188.296875 109.949219 188.285156 109.945312 C 188.292969 109.929688 188.300781 109.917969 188.308594 109.90625 Z M 188.308594 109.90625 " fill-opacity="1" fill-rule="nonzero"/></svg>