<?xml version="1.0" encoding="UTF-8"?>
<svg id="Ebene_1" data-name="Ebene 1" xmlns="http://www.w3.org/2000/svg" viewBox="0 0 868.98 474.71">
  <defs>
    <style>
      .cls-1 {
        fill: #f1f1f1;
      }

      .cls-2, .cls-3 {
        isolation: isolate;
      }

      .cls-2, .cls-4 {
        fill: #f2f2f2;
      }

      .cls-3 {
        opacity: .1;
      }

      .cls-5 {
        fill: #3f3d56;
      }

      .cls-6 {
        fill: #1d1d1b;
      }

      .cls-7 {
        fill: #fff;
      }

      .cls-8 {
        fill: #ffb7b7;
      }

      .cls-9 {
        fill: #cbcbcb;
      }

      .cls-10 {
        fill: #badd7f;
      }
    </style>
  </defs>
  <path class="cls-4" d="M47.46,432.33c-18.52,15.79-22.36,41.69-22.36,41.69,0,0,26.18.3,44.7-15.49s22.36-41.69,22.36-41.69c0,0-26.18-.3-44.7,15.49Z"/>
  <path class="cls-4" d="M56.02,438.61c-7.89,23.02-30.57,36.11-30.57,36.11,0,0-9.89-24.24-2-47.26s30.56-36.11,30.56-36.11c0,0,9.89,24.24,2,47.26Z"/>
  <path class="cls-6" d="M249.3,98c-4.19-5.43-10.11-10.45-10.49-17.15-.34-6.14,4.24-12.24,2.31-18.12-1.49-4.52-6.39-7.25-11.18-8.69-9.17-2.73-18.98-2.35-27.92,1.07l.48-.34c-5.45-1.94-11.83.06-16.11,3.78-4.29,3.71-6.84,8.86-8.82,14.02-1.98,5.16-3.51,10.51-6.26,15.34-2.75,4.84-6.96,9.23-12.51,10.9,1.86,3.71,7.67,4.98,11.08,2.42.87-.71,1.65-1.52,2.33-2.41,2.27-2.76,4.55-5.53,6.82-8.29,2.34,4.16-1.16,9.9,1.72,13.75,1.48,1.99,4.19,2.74,6.7,3.28,19.65,4.19,40.04,3.44,59.33-2.2,1.55-.46,3.26-1.09,3.9-2.49.74-1.62-.3-3.45-1.4-4.87Z"/>
  <path class="cls-8" d="M305.03,119.19c-.12.54-.2,1.09-.24,1.64l-42.96,24.78-10.44-6.01-11.13,14.57,17.45,12.44c2.9,2.06,6.81,1.97,9.6-.23l44.3-34.95c5.44,2.01,11.48-.76,13.49-6.2s-.76-11.48-6.2-13.49c-5.44-2.01-11.48.76-13.49,6.2-.15.41-.28.82-.38,1.25Z"/>
  <path class="cls-10" d="M260.4,146.79l-13.88,17.99c-1.52,1.97-4.34,2.33-6.31.81-.17-.13-.34-.28-.49-.44l-15.72-16.32c-5.44-4.24-6.41-12.1-2.17-17.54,4.23-5.42,12.05-6.41,17.5-2.2l19.71,11.02c2.17,1.21,2.94,3.96,1.73,6.12-.11.19-.23.38-.36.55h0Z"/>
  <polygon class="cls-8" points="241.29 460.31 253.55 460.31 259.38 413.02 241.29 413.02 241.29 460.31"/>
  <path class="cls-6" d="M238.16,456.31h24.14s0,0,0,0c8.5,0,15.39,6.89,15.39,15.39v.5h-39.53s0-15.89,0-15.89Z"/>
  <polygon class="cls-8" points="157.29 460.31 169.55 460.31 175.38 413.02 157.29 413.02 157.29 460.31"/>
  <path class="cls-6" d="M154.16,456.31h24.14s0,0,0,0c8.5,0,15.39,6.89,15.39,15.39v.5h-39.53s0-15.89,0-15.89Z"/>
  <circle class="cls-8" cx="212.86" cy="89.01" r="21.19"/>
  <path class="cls-6" d="M225.26,120.77l12.48,6.18s13.95,24.24,5.95,47.24c-3.88,11.17,7.05,46.76,7.05,46.76,0,0,16.95,161.24,17,211-21.05,3.24-41.05,7.24-42.05-2.76s-11.95-128.24-11.95-128.24c0,0-15.05,131.24-27.05,133.24s-36-1-36-1c0,0,19.05-192.24,32.05-204.24l2-10-.05-89.76,14.98-7.15,25.59-1.27Z"/>
  <path class="cls-8" d="M180.61,257.04c5.22-2.82,7.16-9.34,4.34-14.56-.3-.56-.65-1.09-1.04-1.58l14.52-96.76-18.97-.91-11.32,96.36c-4.41,4.02-4.73,10.85-.71,15.26,3.36,3.69,8.81,4.6,13.19,2.19h0Z"/>
  <path class="cls-10" d="M198,168.38l-22.68-1.43c-2.48-.16-4.36-2.29-4.21-4.77.01-.22.04-.44.09-.65l4.73-22.16c.47-6.89,6.44-12.08,13.33-11.61,6.86.47,12.05,6.4,11.61,13.26l1.9,22.51c.21,2.48-1.63,4.65-4.11,4.86-.22.02-.44.02-.66,0h0Z"/>
  <path class="cls-6" d="M824.89,76.63h-501.59c-7.62,0-13.81,6.18-13.81,13.81v279.48c0,7.62,6.18,13.81,13.81,13.81h501.59c7.62,0,13.81-6.18,13.81-13.81V90.43c0-7.62-6.18-13.81-13.81-13.81h0Z"/>
  <rect class="cls-7" x="328" y="101.03" width="492.19" height="277.64"/>
  <circle class="cls-7" cx="573.67" cy="88.41" r="5.05"/>
  <polygon class="cls-2" points="679.43 378.67 328 378.67 328 101.03 679.43 378.67"/>
  <path class="cls-6" d="M852.51,373.62h-48.03v-3.46c0-.38-.31-.69-.69-.69h-16.47c-.38,0-.69.31-.69.69h0v3.46h-10.29v-3.46c0-.38-.31-.69-.69-.69h-16.47c-.38,0-.69.31-.69.69h0v3.46h-10.29v-3.46c0-.38-.31-.69-.69-.69h-16.47c-.38,0-.69.31-.69.69h0v3.46h-10.29v-3.46c0-.38-.31-.69-.69-.69h-16.47c-.38,0-.69.31-.69.69h0v3.46h-10.29v-3.46c0-.38-.31-.69-.69-.69h-16.47c-.38,0-.69.31-.69.69h0v3.46h-10.29v-3.46c0-.38-.31-.69-.69-.69h-16.47c-.38,0-.69.31-.69.69h0v3.46h-10.29v-3.46c0-.38-.31-.69-.69-.69h-129.01c-.38,0-.69.31-.69.69h0v3.46h-10.29v-3.46c0-.38-.31-.69-.69-.69h-16.47c-.38,0-.69.31-.69.69h0v3.46h-10.29v-3.46c0-.38-.31-.69-.69-.69h-16.47c-.38,0-.69.31-.69.69h0v3.46h-10.29v-3.46c0-.38-.31-.69-.69-.69h-16.47c-.38,0-.69.31-.69.69h0v3.46h-10.29v-3.46c0-.38-.31-.69-.69-.69h-16.47c-.38,0-.69.31-.69.69h0v3.46h-10.29v-3.46c0-.38-.31-.69-.69-.69h-16.47c-.38,0-.69.31-.69.69v3.46h-10.29v-3.46c0-.38-.31-.69-.69-.69h-16.47c-.38,0-.69.31-.69.69h0v3.46h-31.57c-9.1,0-16.47,7.37-16.47,16.47v7.45c0,9.1,7.37,16.47,16.47,16.47h547.59c9.1,0,16.47-7.37,16.47-16.47v-7.45c0-9.1-7.37-16.47-16.47-16.47h0Z"/>
  <path class="cls-5" d="M583.56,342.26c-.16.39-.35.77-.55,1.14-1.07,1.98-2.59,3.69-4.43,4.99-6.58,4.63-15.66,3.05-20.29-3.53-1.73-2.45-2.65-5.38-2.65-8.38v-2.35h1.99c7.75,5.01,16.72,7.82,25.94,8.13Z"/>
  <path class="cls-5" d="M612.02,334.82v1.66c0,8.04-6.51,14.56-14.55,14.56-5.33,0-10.24-2.91-12.79-7.59-.21-.38-.41-.77-.58-1.17.43.01.85.02,1.27.02,9.4.01,18.63-2.58,26.65-7.48Z"/>
  <path class="cls-6" d="M631.64,159.03c-.44-.06-.88-.11-1.32-.13,5.04,11.61,5.39,24.72.97,36.58.44-.05.88-.12,1.32-.2,9.96-1.93,16.47-11.57,14.54-21.53-1.49-7.71-7.73-13.62-15.51-14.7h0Z"/>
  <path class="cls-6" d="M540.42,158.9c-.44.03-.89.07-1.32.13-10.05,1.4-17.07,10.68-15.67,20.73,1.08,7.78,6.99,14.02,14.7,15.51.44.08.87.15,1.32.2-4.41-11.86-4.06-24.97.97-36.58h0Z"/>
  <path class="cls-5" d="M631.64,159.03c-10.7-25.55-40.08-37.59-65.63-26.9-25.55,10.7-37.59,40.08-26.9,65.63,10.7,25.55,40.08,37.59,65.63,26.9,18.65-7.81,30.79-26.05,30.79-46.27,0-6.65-1.32-13.23-3.89-19.36ZM631.29,195.48c-9.43,25.35-37.63,38.26-62.99,28.83-25.35-9.43-38.26-37.63-28.83-62.99,9.43-25.35,37.63-38.26,62.99-28.83,19.18,7.14,31.9,25.44,31.9,45.91,0,5.83-1.04,11.61-3.07,17.08Z"/>
  <path class="cls-6" d="M611.03,167.02h-51.33c-5.64,0-10.2,4.58-10.2,10.22,0,5.63,4.57,10.19,10.2,10.2h51.33c5.64,0,10.2-4.58,10.2-10.22,0-5.63-4.57-10.19-10.2-10.2Z"/>
  <path class="cls-5" d="M631.29,265.56c-.19-.34-.38-.68-.58-1.01,0-.01-.01-.02-.02-.03-14.62-25.02-46.75-33.46-71.78-18.84-25.02,14.62-33.46,46.75-18.84,71.78,8.98,15.37,25.14,25.14,42.92,25.95.55.03,1.11.05,1.67.05.23.01.46.01.69.01,9.38.01,18.58-2.5,26.65-7.29,8.76-5.19,15.84-12.79,20.38-21.9,0-.01.01-.02.02-.03.18-.35.34-.71.51-1.07,7.12-15.22,6.51-32.93-1.64-47.62h0ZM631.79,312.86c-.17.36-.34.72-.52,1.07-4.34,8.63-11.01,15.86-19.25,20.89-8.02,4.9-17.25,7.49-26.65,7.48-.43,0-.85,0-1.27-.02-.18,0-.36,0-.54-.02-28.33-.99-50.49-24.76-49.5-53.09.99-28.33,24.76-50.49,53.09-49.5,17.5.61,33.48,10.1,42.39,25.17,0,.01.01.02.02.03.2.33.4.67.59,1.01,8.12,14.47,8.74,31.97,1.66,46.98h0Z"/>
  <path class="cls-6" d="M625.72,267.11c-1.02-.73-2.24-1.12-3.5-1.13h-22.94c-3.33,0-6.03,2.69-6.03,6.02s2.69,6.03,6.02,6.03h22.95c.41,0,.82-.04,1.22-.12.4-.09.79-.21,1.17-.37,3.05-1.32,4.46-4.86,3.15-7.91-.44-1.01-1.14-1.88-2.03-2.52h0Z"/>
  <circle class="cls-1" cx="600.8" cy="272.01" r="3.06"/>
  <circle class="cls-1" cx="610.74" cy="272.01" r="3.06"/>
  <circle class="cls-10" cx="620.69" cy="272.01" r="3.06"/>
  <path class="cls-7" d="M735.9,171.2c-7.96,4.77-22.13,10.75-36.61,4.61l-9.36-3.97,18.76-21.03c-33.24-36.66-30.48-93.32,6.18-126.57,36.66-33.24,93.32-30.48,126.57,6.18s30.48,93.32-6.18,126.57c-27.11,24.58-66.44,30.21-99.35,14.22h0Z"/>
  <path class="cls-10" d="M735.95,172.33c-7.64,4.49-22.21,10.69-37.05,4.39l-10.65-4.52,19.09-21.4c-33.25-37.4-29.88-94.66,7.52-127.91s94.66-29.88,127.91,7.52c33.01,37.13,29.96,93.93-6.85,127.31h0c-27.21,24.83-66.79,30.62-99.98,14.61h0ZM840.69,31.08c-32.86-36.26-88.89-39.02-125.15-6.16s-39.02,88.89-6.16,125.15c.02.02.04.04.05.06l.6.67-18.43,20.66,8.08,3.43c14.34,6.08,28.53-.24,35.71-4.54l.46-.28.49.24c44.01,21.39,97.03,3.04,118.41-40.97,15.81-32.55,10.25-71.44-14.06-98.25h0Z"/>
  <path class="cls-3" d="M850.7,90.04c0-42.71-32.62-78.36-75.17-82.13,2.4-.21,4.83-.32,7.29-.32,45.54.02,82.44,36.95,82.42,82.49-.02,45.51-36.91,82.41-82.42,82.42-2.45,0-4.88-.12-7.28-.33,42.54-3.78,75.15-39.42,75.16-82.13Z"/>
  <rect class="cls-10" x="727.77" y="73.6" width="58.92" height="5.47"/>
  <rect class="cls-10" x="727.77" y="92.53" width="102.69" height="5.47"/>
  <rect class="cls-10" x="727.77" y="111.46" width="102.59" height="5.47"/>
  <path class="cls-9" d="M382,473.24H1c-.55,0-1-.45-1-1s.45-1,1-1h381c.55,0,1,.45,1,1s-.45,1-1,1Z"/>
  <path class="cls-6" d="M235.07,75.23c-.83-3.75-3.51-6.85-6.6-9.12-10.51-7.73-25.04-6.85-34.54,2.1-2.57,2.27-4.42,5.24-5.33,8.55-.88,3.36-.04,6.93,2.23,9.55l.42.27c-.38-1.63.88-3.25,2.39-3.97,1.57-.58,3.21-.94,4.88-1.09,5.1-.96,9.54-4.09,12.16-8.58,1.94,5.52,6.17,9.93,11.61,12.1,2.8,1.1,10.49,2.6,13.16,1.21,3.4-1.77.44-7.26-.38-11Z"/>
</svg>